<svg xmlns="http://www.w3.org/2000/svg" width="21" height="24" viewBox="0 0 21 24" fill="none">
<path d="M1 5.74997H20" stroke="#0D5296" stroke-width="2" stroke-linecap="round" stroke-linejoin="round"/>
<path d="M8.125 10.5V17.625" stroke="#0D5296" stroke-width="2" stroke-linecap="round" stroke-linejoin="round"/>
<path d="M12.8752 10.5V17.625" stroke="#0D5296" stroke-width="2" stroke-linecap="round" stroke-linejoin="round"/>
<path d="M2.18774 5.74997L3.37524 20C3.37524 20.6299 3.62547 21.2339 4.07087 21.6793C4.51626 22.1247 5.12035 22.375 5.75024 22.375H15.2502C15.8801 22.375 16.4842 22.1247 16.9296 21.6793C17.375 21.2339 17.6252 20.6299 17.6252 20L18.8127 5.74997" stroke="#0D5296" stroke-width="2" stroke-linecap="round" stroke-linejoin="round"/>
<path d="M6.9375 5.75V2.1875C6.9375 1.87256 7.06261 1.57051 7.28531 1.34781C7.50801 1.12511 7.81006 1 8.125 1H12.875C13.1899 1 13.492 1.12511 13.7147 1.34781C13.9374 1.57051 14.0625 1.87256 14.0625 2.1875V5.75" stroke="#0D5296" stroke-width="2" stroke-linecap="round" stroke-linejoin="round"/>
</svg>