<svg width="16" height="20" viewBox="0 0 16 20" fill="none" xmlns="http://www.w3.org/2000/svg">
<path d="M9.71135 11.3352L9.60029 11.4914V11.683V18.6614C9.56868 18.6556 9.53624 18.6494 9.50305 18.6429C9.05237 18.5546 8.48925 18.4049 7.98731 18.1612C7.49465 17.922 7.06324 17.5773 6.74869 17.2819C6.60068 17.1428 6.48252 17.0185 6.40029 16.9275V11.683V11.4914L6.28924 11.3352L0.900293 3.75835V2.20715C0.956623 2.1924 1.01811 2.17655 1.08451 2.15974C1.48253 2.05897 2.05638 1.92407 2.75449 1.78904C4.15351 1.51844 6.03814 1.24996 8.00029 1.24996C9.96245 1.24996 11.8471 1.51844 13.2461 1.78904C13.9442 1.92407 14.5181 2.05897 14.9161 2.15974C14.9825 2.17655 15.044 2.1924 15.1003 2.20715V3.75835L9.71135 11.3352Z" stroke="#0D5296" stroke-width="1.2"/>
</svg>
