<svg width="16" height="16" viewBox="0 0 16 16" fill="none" xmlns="http://www.w3.org/2000/svg">
<path d="M13.1286 3.60184C13.1286 3.74068 13.1367 3.87136 13.1286 4.00204C13.1041 4.3369 12.8511 4.58193 12.5493 4.56559C12.2229 4.54109 12.0026 4.35324 11.9944 4.01837C11.9781 3.24247 11.9781 2.46656 11.9944 1.69066C12.0026 1.33946 12.2311 1.14344 12.5819 1.14344C13.3325 1.13527 14.075 1.13527 14.8256 1.14344C15.1602 1.15161 15.4049 1.4048 15.4049 1.70699C15.4131 2.00919 15.1683 2.27054 14.8338 2.27871C14.4422 2.29505 14.0505 2.27871 13.5855 2.27871C14.3606 3.08729 14.948 3.95304 15.3723 4.93313C17.4202 9.71107 14.1566 15.3466 9.00821 15.9265C8.69816 15.9592 8.38812 15.9918 8.07807 16C7.67827 16.0082 7.41718 15.7713 7.41718 15.4364C7.40902 15.1016 7.66196 14.8729 8.06991 14.8647C10.0444 14.8075 11.7089 14.0643 13.0551 12.6105C15.3152 10.1603 15.4294 6.28075 13.3162 3.69985C13.2836 3.65901 13.2591 3.61 13.2346 3.561C13.202 3.56917 13.1612 3.5855 13.1286 3.60184Z" fill="#0D5296"/>
<path d="M1.86851 13.141C0.595695 11.5484 -0.00807752 9.82503 8.1574e-05 7.88935C0.0245588 3.92814 3.07606 0.530492 7.00058 0.0649484C7.28615 0.0322787 7.57172 -0.00039102 7.84913 -0.00039102C8.28156 -0.00855845 8.55081 0.211962 8.55081 0.563162C8.55897 0.914362 8.29788 1.12671 7.85729 1.14305C5.86647 1.20839 4.19385 1.97613 2.86392 3.45443C0.660968 5.8965 0.571218 9.75969 2.6681 12.3079C2.70074 12.3488 2.71706 12.4059 2.7497 12.4468C2.78233 12.4304 2.82313 12.4223 2.85576 12.4059C2.85576 12.1201 2.85576 11.8261 2.85576 11.5402C2.86392 11.1155 3.09238 10.846 3.44322 10.8623C3.76958 10.8705 3.98988 11.1318 3.99804 11.5402C4.0062 12.2344 4.0062 12.9287 3.99804 13.6229C3.98988 14.0639 3.7859 14.2844 3.35347 14.2926C2.64363 14.3008 1.94195 14.3008 1.2321 14.2926C0.832309 14.2926 0.571218 14.0558 0.571218 13.7209C0.571218 13.386 0.82415 13.1573 1.22395 13.1492C1.4116 13.141 1.59926 13.141 1.86851 13.141Z" fill="#0D5296"/>
</svg>
