<svg width="20" height="16" viewBox="0 0 22 19" fill="none" xmlns="http://www.w3.org/2000/svg">
<path d="M2.44444 0H7.33333L11 3.66667H19.5556C20.2039 3.66667 20.8256 3.92421 21.284 4.38263C21.7425 4.84105 22 5.4628 22 6.11111V15.8889C22 16.5372 21.7425 17.1589 21.284 17.6174C20.8256 18.0758 20.2039 18.3333 19.5556 18.3333H2.44444C1.79614 18.3333 1.17438 18.0758 0.715961 17.6174C0.257539 17.1589 0 16.5372 0 15.8889V2.44444C0 1.79614 0.257539 1.17438 0.715961 0.715961C1.17438 0.257539 1.79614 0 2.44444 0Z" fill="#333333"/>
<circle cx="8.33343" cy="10.5111" r="1.73333" fill="white"/>
<circle cx="14.4001" cy="10.5111" r="1.73333" fill="white"/>
</svg>
